#N canvas 0 116 644 638 10;
#X obj 57 88 inlet;
#X obj 57 173 soundfiler;
#X floatatom 83 207 12 0 0 0 - - -;
#X obj 83 238 s sampleSize;
#X obj 58 264 expr 44100 / $f1;
#X obj 58 303 phasor~;
#X obj 58 339 *~;
#X obj 303 386 vsl 15 128 0 1 0 0 empty empty empty 0 -9 0 10 -262144
-1 -1 12700 1;
#X obj 58 516 *~;
#X obj 103 516 *~;
#X obj 87 324 r sampleSize;
#X obj 58 582 dac~ 1 2;
#X msg 193 356 set \$1;
#X msg 245 356 set \$1;
#X obj 58 409 tabread4~;
#X obj 126 409 tabread4~;
#X msg 57 138 read -resize \$1 \$2 \$3;
#X obj 139 117 unpack s s s s;
#X obj 318 323 r mv;
#X obj 113 286 r sync;
#X obj 130 89 inlet;
#X obj 303 106 f;
#X obj 303 355 *;
#X connect 0 0 16 0;
#X connect 0 0 17 0;
#X connect 1 0 2 0;
#X connect 1 0 4 0;
#X connect 2 0 3 0;
#X connect 4 0 5 0;
#X connect 5 0 6 0;
#X connect 6 0 14 0;
#X connect 6 0 15 0;
#X connect 7 0 8 1;
#X connect 7 0 9 1;
#X connect 8 0 11 0;
#X connect 9 0 11 1;
#X connect 10 0 6 1;
#X connect 12 0 14 0;
#X connect 13 0 15 0;
#X connect 14 0 8 0;
#X connect 15 0 9 0;
#X connect 16 0 1 0;
#X connect 17 2 12 0;
#X connect 17 3 13 0;
#X connect 18 0 22 1;
#X connect 19 0 5 1;
#X connect 20 0 21 0;
#X connect 21 0 22 0;
#X connect 22 0 7 0;
