#N canvas 0 22 450 300 10;
#X obj 50 85 OSCroute /0 /1 /2 /3 /4;
#X obj 50 31 inlet;
#X floatatom 50 120 5 0 0 0 - - -;
#X floatatom 156 120 5 0 0 0 - - -;
#X floatatom 264 120 5 0 0 0 - - -;
#X floatatom 368 120 5 0 0 0 - - -;
#X floatatom 474 120 5 0 0 0 - - -;
#X obj 264 145 expr $f1 > -1;
#X obj 50 146 expr $f1 > -1;
#X obj 156 145 expr $f1 > -1;
#X obj 368 146 expr $f1 > -1;
#X obj 474 146 expr $f1 > -1;
#X obj 97 30 inlet;
#X msg 75 208 0;
#X obj 60 232 +;
#X obj 166 232 +;
#X obj 274 232 +;
#X obj 378 232 +;
#X obj 484 232 +;
#X msg 181 208 1;
#X msg 289 208 2;
#X msg 393 208 3;
#X msg 499 208 4;
#X obj 50 286 tabwrite sqdata;
#X obj 156 286 tabwrite sqdata;
#X obj 264 286 tabwrite sqdata;
#X obj 368 286 tabwrite sqdata;
#X obj 474 286 tabwrite sqdata;
#X floatatom 60 262 5 0 0 0 - - -;
#X floatatom 166 262 5 0 0 0 - - -;
#X floatatom 274 262 5 0 0 0 - - -;
#X floatatom 378 262 5 0 0 0 - - -;
#X floatatom 484 262 5 0 0 0 - - -;
#X obj 37 177 loadbang;
#X connect 0 0 2 0;
#X connect 0 1 3 0;
#X connect 0 2 4 0;
#X connect 0 3 5 0;
#X connect 0 4 6 0;
#X connect 1 0 0 0;
#X connect 2 0 8 0;
#X connect 3 0 9 0;
#X connect 4 0 7 0;
#X connect 5 0 10 0;
#X connect 6 0 11 0;
#X connect 7 0 25 0;
#X connect 8 0 23 0;
#X connect 9 0 24 0;
#X connect 10 0 26 0;
#X connect 11 0 27 0;
#X connect 12 0 14 0;
#X connect 12 0 15 0;
#X connect 12 0 16 0;
#X connect 12 0 17 0;
#X connect 12 0 18 0;
#X connect 13 0 14 1;
#X connect 14 0 23 1;
#X connect 14 0 28 0;
#X connect 15 0 24 1;
#X connect 15 0 29 0;
#X connect 16 0 25 1;
#X connect 16 0 30 0;
#X connect 17 0 26 1;
#X connect 17 0 31 0;
#X connect 18 0 27 1;
#X connect 18 0 32 0;
#X connect 19 0 15 1;
#X connect 20 0 16 1;
#X connect 21 0 17 1;
#X connect 22 0 18 1;
#X connect 33 0 13 0;
#X connect 33 0 19 0;
#X connect 33 0 20 0;
#X connect 33 0 21 0;
#X connect 33 0 22 0;
