#N canvas 642 181 867 646 10;
#X obj 26 371 dac~;
#X msg 26 173 start;
#X obj 26 137 t b b;
#X obj 26 17 inlet;
#X obj 41 50 bng 15 250 50 0 empty empty empty 17 7 0 10 -262144 -1
-1;
#X obj 26 330 *~;
#X obj 26 289 readsf~ 1 1e+06;
#X obj 79 18 inlet;
#X obj 151 284 f \$1;
#X floatatom 151 314 5 0 0 0 - - -;
#X obj 139 19 inlet;
#X obj 139 46 f 0;
#X floatatom 139 72 5 0 0 0 - - -;
#X msg 53 261 open 2.wav;
#X obj 35 116 bng 15 250 50 0 empty empty empty 17 7 0 10 -262144 -1
-1;
#X msg 151 186 set open 0.wav;
#X msg 132 161 set open 1.wav;
#X msg 114 135 set open 2.wav;
#X msg 169 216 set open 3.wav;
#X msg 189 244 set open 4.wav;
#X obj 114 98 select 0 1 2 3 4;
#X connect 1 0 6 0;
#X connect 2 0 1 0;
#X connect 2 1 13 0;
#X connect 3 0 2 0;
#X connect 3 0 4 0;
#X connect 5 0 0 0;
#X connect 5 0 0 1;
#X connect 6 0 5 0;
#X connect 7 0 8 0;
#X connect 8 0 9 0;
#X connect 9 0 5 1;
#X connect 10 0 11 0;
#X connect 11 0 12 0;
#X connect 12 0 20 0;
#X connect 13 0 6 0;
#X connect 14 0 2 0;
#X connect 15 0 13 0;
#X connect 16 0 13 0;
#X connect 17 0 13 0;
#X connect 18 0 13 0;
#X connect 19 0 13 0;
#X connect 20 0 17 0;
#X connect 20 1 16 0;
#X connect 20 2 15 0;
#X connect 20 3 18 0;
#X connect 20 4 19 0;
