#N canvas -809 218 479 496 10;
#X obj 39 198 bng 15 250 50 0 empty empty empty 17 7 0 10 -262144 -1
-1;
#X obj 37 62 f;
#X obj 37 21 inlet;
#X obj 93 21 inlet;
#X obj 163 146 f;
#X floatatom 163 84 5 0 0 0 - - -;
#X obj 73 195 bng 15 250 50 0 empty empty empty 17 7 0 10 -262144 -1
-1;
#X obj 101 253 line 0 100;
#X obj 27 255 line 1 100;
#X obj 101 330 s \$1;
#X obj 29 331 s \$1;
#X msg 195 204 symbol v\$1;
#X msg 108 223 1 250;
#X msg 44 225 0 250;
#X floatatom 49 86 5 0 0 0 - - -;
#X obj 37 154 moses 1;
#X connect 0 0 13 0;
#X connect 1 0 14 0;
#X connect 1 0 15 0;
#X connect 2 0 1 0;
#X connect 3 0 5 0;
#X connect 4 0 11 0;
#X connect 5 0 4 0;
#X connect 6 0 12 0;
#X connect 7 0 9 0;
#X connect 8 0 10 0;
#X connect 11 0 9 1;
#X connect 11 0 10 1;
#X connect 12 0 7 0;
#X connect 13 0 8 0;
#X connect 15 0 0 0;
#X connect 15 1 6 0;
