#N canvas 359 25 1134 890 10;
#X declare -lib mrpeach;
#X obj 51 216 unpackOSC;
#X obj 68 144 import mrpeach;
#X obj 51 243 OSCroute /duck;
#X obj 51 270 OSCroute /0 /1 /2 /3 /4 /5 /6 /7;
#X obj 739 233 metro 500;
#X msg 691 182 1;
#X msg 739 186 0;
#X obj 739 267 counter;
#X obj 739 335 select 0 1 2 3 4 5 6 7;
#X obj 739 297 % 8;
#X obj 133 76 s mv;
#X floatatom 135 45 5 0 1 0 - - -;
#X msg 862 189 250;
#X msg 899 188 500;
#X floatatom 831 308 5 0 0 0 - - -;
#X msg 936 189 1000;
#X obj 297 182 table sqdata;
#X msg 190 55 5;
#X obj 69 418 *;
#X obj 249 72 loadbang;
#X msg 69 373 0;
#X obj 249 50 bng 15 250 50 0 empty empty empty 17 7 0 10 -262144 -1
-1;
#X obj 190 78 s rows;
#X obj 249 101 s start;
#X obj 84 395 r rows;
#X obj 69 348 r start;
#X obj 190 30 r start;
#X obj 129 417 *;
#X obj 144 394 r rows;
#X obj 129 347 r start;
#X msg 129 372 1;
#X obj 187 417 *;
#X obj 202 394 r rows;
#X obj 187 347 r start;
#X msg 187 372 2;
#X obj 252 416 *;
#X obj 267 393 r rows;
#X obj 252 346 r start;
#X obj 312 415 *;
#X obj 327 392 r rows;
#X obj 312 345 r start;
#X obj 375 414 *;
#X obj 390 391 r rows;
#X obj 375 344 r start;
#X obj 436 413 *;
#X obj 451 390 r rows;
#X obj 436 343 r start;
#X obj 498 412 *;
#X obj 513 389 r rows;
#X obj 498 342 r start;
#X msg 252 371 3;
#X msg 312 370 4;
#X msg 375 369 5;
#X msg 436 368 6;
#X msg 498 367 7;
#X obj 69 486 s col0;
#X obj 129 486 s col1;
#X obj 187 486 s col2;
#X obj 252 486 s col3;
#X obj 312 486 s col4;
#X obj 375 486 s col5;
#X obj 437 486 s col6;
#X obj 498 486 s col7;
#X obj 739 411 r col0;
#X obj 792 411 r col1;
#X obj 846 411 r col2;
#X obj 902 411 r col3;
#X obj 740 459 r col4;
#X obj 793 459 r col5;
#X obj 847 459 r col6;
#X obj 903 459 r col7;
#X floatatom 526 447 5 0 0 0 - - -;
#X obj 51 511 incol;
#X obj 111 510 incol;
#X obj 169 510 incol;
#X obj 234 510 incol;
#X obj 294 510 incol;
#X obj 357 510 incol;
#X obj 418 510 incol;
#X obj 480 510 incol;
#X obj 894 434 sqcol;
#X obj 839 482 sqcol;
#X obj 731 434 sqcol;
#X obj 784 434 sqcol;
#X obj 838 434 sqcol;
#X obj 732 482 sqcol;
#X obj 785 482 sqcol;
#X obj 895 482 sqcol;
#X msg 825 190 125;
#X msg 840 27 160;
#X msg 692 22 60000;
#X obj 727 81 /;
#X floatatom 796 167 5 0 0 0 - - -;
#X obj 135 601 table chan1_0;
#X obj 135 622 table chan1_1;
#X obj 241 600 table chan2_0;
#X obj 241 621 table chan2_1;
#X obj 389 118 s sync;
#X obj 412 55 bng 15 250 50 0 empty empty empty 17 7 0 10 -262144 -1
-1;
#X msg 368 738 s 2.aif chan2_0 chan2_1;
#X msg 215 737 s 1.aif chan1_0 chan1_1;
#X obj 68 660 bng 15 250 50 0 empty empty empty 17 7 0 10 -262144 -1
-1;
#X obj 341 599 table chan3_0;
#X obj 341 620 table chan3_1;
#X obj 436 599 table chan4_0;
#X obj 436 620 table chan4_1;
#X obj 39 600 table chan0_0;
#X obj 39 621 table chan0_1;
#X obj 60 826 audioplayback;
#X msg 59 737 s 0.aif chan0_0 chan0_1;
#X obj 75 685 t b b b b b;
#X msg 526 738 s 3.aif chan3_0 chan3_1;
#X msg 678 739 s 4.aif chan4_0 chan4_1;
#X obj 216 826 audioplayback;
#X obj 368 828 audioplayback;
#X obj 527 827 audioplayback;
#X obj 679 829 audioplayback;
#X obj 135 771 r v0;
#X obj 291 767 r v1;
#X obj 443 771 r v2;
#X obj 602 771 r v3;
#X obj 754 768 r v4;
#X obj 475 120 s v1;
#X obj 516 120 s v2;
#X obj 436 121 s v0;
#X obj 555 118 s v3;
#X obj 589 115 s v4;
#X floatatom 161 799 5 0 0 0 - - -;
#X floatatom 308 802 5 0 0 0 - - -;
#X msg 473 84 0;
#X floatatom 464 812 5 0 0 0 - - -;
#X floatatom 622 802 5 0 0 0 - - -;
#X floatatom 774 803 5 0 0 0 - - -;
#X obj 756 157 f;
#X msg 782 27 140;
#X obj 51 187 udpreceive 1235;
#X obj 725 113 * 4;
#X connect 0 0 2 0;
#X connect 2 0 3 0;
#X connect 3 0 72 0;
#X connect 3 1 73 0;
#X connect 3 2 74 0;
#X connect 3 3 75 0;
#X connect 3 4 76 0;
#X connect 3 5 77 0;
#X connect 3 6 78 0;
#X connect 3 7 79 0;
#X connect 4 0 7 0;
#X connect 5 0 4 0;
#X connect 6 0 4 0;
#X connect 7 0 9 0;
#X connect 8 0 82 0;
#X connect 8 1 83 0;
#X connect 8 2 84 0;
#X connect 8 3 80 0;
#X connect 8 4 85 0;
#X connect 8 5 86 0;
#X connect 8 6 81 0;
#X connect 8 7 87 0;
#X connect 9 0 8 0;
#X connect 9 0 14 0;
#X connect 11 0 10 0;
#X connect 12 0 4 1;
#X connect 13 0 4 1;
#X connect 15 0 4 1;
#X connect 17 0 22 0;
#X connect 18 0 55 0;
#X connect 18 0 72 1;
#X connect 19 0 23 0;
#X connect 20 0 18 0;
#X connect 21 0 19 0;
#X connect 24 0 18 1;
#X connect 25 0 20 0;
#X connect 26 0 17 0;
#X connect 27 0 56 0;
#X connect 27 0 73 1;
#X connect 28 0 27 1;
#X connect 29 0 30 0;
#X connect 30 0 27 0;
#X connect 31 0 57 0;
#X connect 31 0 74 1;
#X connect 32 0 31 1;
#X connect 33 0 34 0;
#X connect 34 0 31 0;
#X connect 35 0 58 0;
#X connect 35 0 75 1;
#X connect 36 0 35 1;
#X connect 37 0 50 0;
#X connect 38 0 59 0;
#X connect 38 0 76 1;
#X connect 39 0 38 1;
#X connect 40 0 51 0;
#X connect 41 0 60 0;
#X connect 41 0 77 1;
#X connect 42 0 41 1;
#X connect 43 0 52 0;
#X connect 44 0 61 0;
#X connect 44 0 78 1;
#X connect 45 0 44 1;
#X connect 46 0 53 0;
#X connect 47 0 62 0;
#X connect 47 0 71 0;
#X connect 47 0 79 1;
#X connect 48 0 47 1;
#X connect 49 0 54 0;
#X connect 50 0 35 0;
#X connect 51 0 38 0;
#X connect 52 0 41 0;
#X connect 53 0 44 0;
#X connect 54 0 47 0;
#X connect 63 0 82 1;
#X connect 64 0 83 1;
#X connect 65 0 84 1;
#X connect 66 0 80 1;
#X connect 67 0 85 1;
#X connect 68 0 86 1;
#X connect 69 0 81 1;
#X connect 70 0 87 1;
#X connect 88 0 4 1;
#X connect 89 0 91 1;
#X connect 90 0 91 0;
#X connect 91 0 136 0;
#X connect 98 0 129 0;
#X connect 98 0 90 0;
#X connect 98 0 7 2;
#X connect 99 0 114 0;
#X connect 100 0 113 0;
#X connect 101 0 110 0;
#X connect 109 0 108 0;
#X connect 110 0 109 0;
#X connect 110 1 100 0;
#X connect 110 2 99 0;
#X connect 110 3 111 0;
#X connect 110 4 112 0;
#X connect 111 0 115 0;
#X connect 112 0 116 0;
#X connect 117 0 108 1;
#X connect 117 0 127 0;
#X connect 118 0 113 1;
#X connect 118 0 128 0;
#X connect 119 0 114 1;
#X connect 119 0 130 0;
#X connect 120 0 115 1;
#X connect 120 0 131 0;
#X connect 121 0 116 1;
#X connect 121 0 132 0;
#X connect 129 0 97 0;
#X connect 129 0 122 0;
#X connect 129 0 123 0;
#X connect 129 0 124 0;
#X connect 129 0 125 0;
#X connect 129 0 126 0;
#X connect 133 0 4 1;
#X connect 133 0 92 0;
#X connect 134 0 91 1;
#X connect 135 0 0 0;
#X connect 136 0 133 0;
