#N canvas 970 198 450 300 10;
#X obj 39 218 t b b;
#X obj 39 174 spigot;
#X obj 39 198 bng 15 250 50 0 empty empty empty 17 7 0 10 -262144 -1
-1;
#X floatatom 89 110 5 0 0 0 - - -;
#X obj 37 62 f;
#X obj 37 21 inlet;
#X obj 104 136 r mv;
#X obj 89 193 *;
#X obj 104 163 f 1;
#X obj 93 21 inlet;
#X obj 163 146 f;
#X obj 51 149 > 0;
#X obj 39 255 playback;
#X floatatom 163 84 5 0 0 0 - - -;
#X connect 0 0 12 0;
#X connect 1 0 2 0;
#X connect 2 0 0 0;
#X connect 3 0 7 0;
#X connect 4 0 1 0;
#X connect 4 0 3 0;
#X connect 4 0 11 0;
#X connect 5 0 4 0;
#X connect 6 0 8 0;
#X connect 7 0 12 1;
#X connect 8 0 7 1;
#X connect 9 0 13 0;
#X connect 10 0 12 2;
#X connect 11 0 1 1;
#X connect 13 0 10 0;
