#N canvas 0 22 752 469 10;
#X obj 65 47 inlet;
#X obj 112 47 inlet;
#X obj 66 292 tabread sqdata;
#X msg 99 384 0;
#X obj 66 212 +;
#X msg 66 161 0;
#X obj 112 107 s o;
#X obj 168 292 tabread sqdata;
#X obj 168 212 +;
#X obj 267 292 tabread sqdata;
#X obj 267 212 +;
#X obj 366 292 tabread sqdata;
#X obj 366 212 +;
#X obj 467 292 tabread sqdata;
#X obj 467 212 +;
#X msg 168 160 1;
#X msg 201 383 1;
#X msg 267 160 2;
#X msg 300 383 2;
#X msg 366 160 3;
#X msg 399 383 3;
#X msg 467 160 4;
#X msg 500 383 4;
#X obj 65 78 bng 15 250 50 0 empty empty empty 17 7 0 10 -262144 -1
-1;
#X floatatom 80 260 5 0 0 0 - - -;
#X floatatom 127 78 5 0 0 0 - - -;
#X obj 66 360 t f b;
#X obj 168 359 t f b;
#X obj 267 360 t f b;
#X obj 366 359 t f b;
#X obj 467 360 t f b;
#X floatatom 82 322 5 0 0 0 - - -;
#X floatatom 192 322 5 0 0 0 - - -;
#X floatatom 287 322 5 0 0 0 - - -;
#X floatatom 388 322 5 0 0 0 - - -;
#X floatatom 492 322 5 0 0 0 - - -;
#X obj 467 407 playif;
#X obj 66 407 playif;
#X obj 168 407 playif;
#X obj 267 407 playif;
#X obj 366 407 playif;
#X floatatom 192 258 5 0 0 0 - - -;
#X floatatom 290 258 5 0 0 0 - - -;
#X floatatom 391 258 5 0 0 0 - - -;
#X floatatom 486 258 5 0 0 0 - - -;
#X connect 0 0 23 0;
#X connect 1 0 6 0;
#X connect 1 0 25 0;
#X connect 1 0 4 1;
#X connect 1 0 8 1;
#X connect 1 0 10 1;
#X connect 1 0 12 1;
#X connect 1 0 14 1;
#X connect 2 0 26 0;
#X connect 2 0 31 0;
#X connect 3 0 37 1;
#X connect 4 0 2 0;
#X connect 4 0 24 0;
#X connect 5 0 4 0;
#X connect 7 0 27 0;
#X connect 7 0 32 0;
#X connect 8 0 7 0;
#X connect 8 0 41 0;
#X connect 9 0 28 0;
#X connect 9 0 33 0;
#X connect 10 0 9 0;
#X connect 10 0 42 0;
#X connect 11 0 29 0;
#X connect 11 0 34 0;
#X connect 12 0 11 0;
#X connect 12 0 43 0;
#X connect 13 0 30 0;
#X connect 13 0 35 0;
#X connect 14 0 13 0;
#X connect 14 0 44 0;
#X connect 15 0 8 0;
#X connect 16 0 38 1;
#X connect 17 0 10 0;
#X connect 18 0 39 1;
#X connect 19 0 12 0;
#X connect 20 0 40 1;
#X connect 21 0 14 0;
#X connect 22 0 36 1;
#X connect 23 0 5 0;
#X connect 23 0 15 0;
#X connect 23 0 17 0;
#X connect 23 0 19 0;
#X connect 23 0 21 0;
#X connect 26 0 37 0;
#X connect 26 1 3 0;
#X connect 27 0 38 0;
#X connect 27 1 16 0;
#X connect 28 0 39 0;
#X connect 28 1 18 0;
#X connect 29 0 40 0;
#X connect 29 1 20 0;
#X connect 30 0 36 0;
#X connect 30 1 22 0;
